<mxfile host="app.diagrams.net" modified="2024-03-27T08:08:59.123Z" agent="Mozilla/5.0 (Windows NT 10.0; Win64; x64) AppleWebKit/537.36 (KHTML, like Gecko) Chrome/122.0.0.0 Safari/537.36 Edg/122.0.0.0" etag="BBOWuy6IQpWV92WOFk6A" version="24.0.7" type="device">
  <diagram name="Page-1" id="KBEaiFNk3rMuaAeFmrGR">
    <mxGraphModel dx="1042" dy="569" grid="1" gridSize="10" guides="1" tooltips="1" connect="1" arrows="1" fold="1" page="1" pageScale="1" pageWidth="850" pageHeight="1100" math="0" shadow="0">
      <root>
        <mxCell id="0" />
        <mxCell id="1" parent="0" />
        <mxCell id="9LwCvAnH0qxk0vJzkE7Z-5" value="Send data for cure recommend" style="edgeStyle=orthogonalEdgeStyle;rounded=0;orthogonalLoop=1;jettySize=auto;html=1;entryX=0.5;entryY=0;entryDx=0;entryDy=0;" edge="1" parent="1" source="9LwCvAnH0qxk0vJzkE7Z-1" target="9LwCvAnH0qxk0vJzkE7Z-4">
          <mxGeometry relative="1" as="geometry" />
        </mxCell>
        <mxCell id="9LwCvAnH0qxk0vJzkE7Z-1" value="Plant Cure Recommendation Form" style="html=1;align=center;verticalAlign=top;rounded=1;absoluteArcSize=1;arcSize=10;dashed=0;whiteSpace=wrap;" vertex="1" parent="1">
          <mxGeometry x="340" y="160" width="140" height="40" as="geometry" />
        </mxCell>
        <mxCell id="9LwCvAnH0qxk0vJzkE7Z-3" value="Fill data of N, P, K" style="edgeStyle=orthogonalEdgeStyle;rounded=0;orthogonalLoop=1;jettySize=auto;html=1;entryX=0.5;entryY=0;entryDx=0;entryDy=0;" edge="1" parent="1" source="9LwCvAnH0qxk0vJzkE7Z-2" target="9LwCvAnH0qxk0vJzkE7Z-1">
          <mxGeometry relative="1" as="geometry" />
        </mxCell>
        <mxCell id="9LwCvAnH0qxk0vJzkE7Z-2" value="" style="ellipse;fillColor=strokeColor;html=1;" vertex="1" parent="1">
          <mxGeometry x="395" y="60" width="30" height="30" as="geometry" />
        </mxCell>
        <mxCell id="9LwCvAnH0qxk0vJzkE7Z-7" value="Display predicted cure" style="edgeStyle=orthogonalEdgeStyle;rounded=0;orthogonalLoop=1;jettySize=auto;html=1;entryX=0.5;entryY=0;entryDx=0;entryDy=0;" edge="1" parent="1" source="9LwCvAnH0qxk0vJzkE7Z-4" target="9LwCvAnH0qxk0vJzkE7Z-6">
          <mxGeometry relative="1" as="geometry" />
        </mxCell>
        <mxCell id="9LwCvAnH0qxk0vJzkE7Z-4" value="Cure Recommendation Algorithm" style="html=1;align=center;verticalAlign=top;rounded=1;absoluteArcSize=1;arcSize=10;dashed=0;whiteSpace=wrap;" vertex="1" parent="1">
          <mxGeometry x="570" y="210" width="140" height="40" as="geometry" />
        </mxCell>
        <mxCell id="9LwCvAnH0qxk0vJzkE7Z-12" style="edgeStyle=orthogonalEdgeStyle;rounded=0;orthogonalLoop=1;jettySize=auto;html=1;entryX=1;entryY=0.5;entryDx=0;entryDy=0;" edge="1" parent="1" source="9LwCvAnH0qxk0vJzkE7Z-6" target="9LwCvAnH0qxk0vJzkE7Z-10">
          <mxGeometry relative="1" as="geometry" />
        </mxCell>
        <mxCell id="9LwCvAnH0qxk0vJzkE7Z-6" value="Cure suggestion" style="html=1;align=center;verticalAlign=top;rounded=1;absoluteArcSize=1;arcSize=10;dashed=0;whiteSpace=wrap;" vertex="1" parent="1">
          <mxGeometry x="570" y="290" width="140" height="40" as="geometry" />
        </mxCell>
        <mxCell id="9LwCvAnH0qxk0vJzkE7Z-10" value="" style="ellipse;html=1;shape=endState;fillColor=strokeColor;" vertex="1" parent="1">
          <mxGeometry x="390" y="295" width="30" height="30" as="geometry" />
        </mxCell>
      </root>
    </mxGraphModel>
  </diagram>
</mxfile>
